<?xml version="1.0" standalone="no"?><!DOCTYPE svg PUBLIC "-//W3C//DTD SVG 1.1//EN" "http://www.w3.org/Graphics/SVG/1.1/DTD/svg11.dtd"><svg t="1608878832212" class="icon" viewBox="0 0 1024 1024" version="1.1" xmlns="http://www.w3.org/2000/svg" p-id="3595" xmlns:xlink="http://www.w3.org/1999/xlink" width="200" height="200"><defs><style type="text/css"></style></defs><path d="M509.44 0c-225 0-409.09 184.09-409.09 409.09 0 225 322.16 572.72 322.16 572.72 51.13 56.25 127.84 56.25 178.97 0 0 0 322.16-342.61 322.16-572.72 0-107.38-40.91-214.77-117.61-291.48C719.1 40.91 616.83 0 509.44 0z m0 582.95c-76.71 0-143.18-46.02-173.86-117.61-30.68-71.59-15.34-153.41 40.91-204.54 56.25-56.25 138.07-71.59 204.55-40.91 71.59 30.68 117.61 97.16 117.61 173.87 0 107.37-86.93 189.19-189.21 189.19z m0 0" p-id="3596" fill="#1890ff"></path></svg>