<?xml version="1.0" standalone="no"?><!DOCTYPE svg PUBLIC "-//W3C//DTD SVG 1.1//EN" "http://www.w3.org/Graphics/SVG/1.1/DTD/svg11.dtd"><svg t="1608878881252" class="icon" viewBox="0 0 1024 1024" version="1.1" xmlns="http://www.w3.org/2000/svg" p-id="4383" xmlns:xlink="http://www.w3.org/1999/xlink" width="200" height="200"><defs><style type="text/css"></style></defs><path d="M951.8 165.7c-5.2-5.2-12.3-8.1-19.6-8.1h-0.1l-80.3 0.3v-39.7c0-8.3-3.7-16.3-10.2-21.5-6.4-5.3-14.9-7.4-23.1-5.7l-306.8 62.3-306.9-54.4c-8.1-1.4-16.4 0.8-22.7 6.1-6.3 5.3-9.9 13.1-9.9 21.3V160l-80.5 0.3C76.4 160.3 64 172.7 64 188v720.5c0 7.4 2.9 14.5 8.2 19.7 5.2 5.2 12.3 8.1 19.6 8.1h0.1l840.4-2.6c15.3-0.1 27.7-12.5 27.7-27.8V185.4c0-7.4-3-14.5-8.2-19.7M539.8 868V204.3l256.4-52.1V816l-256.4 52z m-312-708.6l256.4 45.5V869l-256.4-45.4V159.4z m-108.2 56.3l52.6-0.2v631.2c0 13.5 9.7 25 22.9 27.3l34.9 6.2-110.5 0.3V215.7z m784.8 662.5l-137.5 0.4 62.6-12.7c13-2.6 22.3-14 22.3-27.2V213.5l52.6-0.1v664.8zM430.1 264.1L288 237.7c-10-1.9-19.5 4.8-21.4 14.7-1.8 9.9 4.7 19.5 14.7 21.4l142.1 26.4c1.1 0.2 2.2 0.3 3.3 0.3 8.7 0 16.4-6.2 18-15 1.9-10-4.7-19.6-14.6-21.4m0 97.5L288 335.2c-10-1.9-19.5 4.7-21.4 14.7-1.8 9.9 4.7 19.5 14.7 21.3l142.1 26.4c1.1 0.2 2.2 0.3 3.3 0.3 8.7 0 16.4-6.2 18-15 1.9-9.9-4.7-19.4-14.6-21.3m0 97.6L288 432.8c-10-1.9-19.5 4.7-21.4 14.7-1.8 10 4.7 19.5 14.7 21.4l142.1 26.4c1.1 0.2 2.2 0.3 3.3 0.3 8.7 0 16.4-6.2 18-15 1.9-10-4.7-19.6-14.6-21.4m0 97.5L288 530.3c-10-1.9-19.5 4.7-21.4 14.7-1.8 10 4.7 19.5 14.7 21.4l142.1 26.4c1.1 0.2 2.2 0.3 3.3 0.3 8.7 0 16.4-6.2 18-15 1.9-10-4.7-19.5-14.6-21.4m0 97.5L288 627.8c-10-2-19.5 4.7-21.4 14.7-1.8 9.9 4.7 19.5 14.7 21.3l142.1 26.4c1.1 0.2 2.2 0.3 3.3 0.3 8.7 0 16.4-6.2 18-15 1.9-9.9-4.7-19.4-14.6-21.3m0 97.6L288 725.4c-10-2-19.5 4.7-21.4 14.7-1.8 9.9 4.7 19.5 14.7 21.3l142.1 26.4c1.1 0.2 2.2 0.3 3.3 0.3 8.7 0 16.4-6.1 18-15 1.9-9.9-4.7-19.5-14.6-21.3m305.5-520.1l-142.1 30.2c-9.9 2.1-16.2 11.8-14.1 21.7 1.8 8.6 9.4 14.5 17.9 14.5 1.2 0 2.5-0.1 3.8-0.4l142.1-30.2c9.9-2.1 16.3-11.8 14.1-21.7-2.1-9.9-11.8-16.2-21.7-14.1m0 97.5l-142.1 30.2c-9.9 2.1-16.2 11.8-14.1 21.7 1.8 8.6 9.4 14.5 17.9 14.5 1.2 0 2.5-0.1 3.8-0.4L743.2 365c9.9-2.1 16.3-11.8 14.1-21.7-2.1-9.9-11.8-16.2-21.7-14.1m0 97.5L593.5 457c-9.9 2.1-16.2 11.8-14.1 21.7 1.8 8.6 9.4 14.5 17.9 14.5 1.2 0 2.5-0.1 3.8-0.4l142.1-30.2c9.9-2.1 16.3-11.8 14.1-21.7-2.1-10-11.8-16.3-21.7-14.2m0 97.6l-142.1 30.2c-9.9 2.1-16.2 11.8-14.1 21.7 1.8 8.6 9.4 14.5 17.9 14.5 1.2 0 2.5-0.1 3.8-0.4l142.1-30.2c9.9-2.1 16.3-11.8 14.1-21.7-2.1-9.9-11.8-16.2-21.7-14.1m0 97.5L593.5 652c-9.9 2.1-16.2 11.8-14.1 21.7 1.8 8.6 9.4 14.5 17.9 14.5 1.2 0 2.5-0.1 3.8-0.4l142.1-30.2c9.9-2.1 16.3-11.8 14.1-21.7-2.1-9.9-11.8-16.2-21.7-14.1m0 97.6l-142.1 30.2c-9.9 2.1-16.2 11.8-14.1 21.7 1.8 8.6 9.4 14.5 17.9 14.5 1.2 0 2.5-0.1 3.8-0.4l142.1-30.2c9.9-2.1 16.3-11.8 14.1-21.7-2.1-10-11.8-16.2-21.7-14.1" fill="#1890ff" p-id="4384"></path></svg>